<svg xmlns="http://www.w3.org/2000/svg" viewBox="0 0 256 92.363"><path fill="#8394a0" d="M35.418 87.361c.002-12.721.013-31.519-.002-44.241 5.353 3.538 10.659 7.146 16.011 10.683.011 3.15-.003 30.41.003 33.558H35.418Zm-1.407 0c0-3.53-.006-8.944-.002-12.475-.007-.39.038-.789-.043-1.173l-.135-.128c-2.608-1.965-5.232-3.913-7.849-5.869-2.223 1.628-4.407 3.307-6.622 4.946-.456.335-.922.66-1.359 1.021l.004 13.678h16.006Z"/><path fill="#005191" d="M109.144 87.362h-7.195l-2.003-5.683H89.889l-2.003 5.683h-6.868l10.629-28.249h6.868l10.629 28.249ZM98.433 76.528l-3.516-10.139-3.516 10.139h7.032Zm28.739 10.834h-16.353V59.154h6.582v22.73h9.771v5.478Zm19.868-22.934h-11.038v6.909h10.384v5.274h-10.384v10.752h-6.582V59.155h17.62v5.274Zm26.532 22.933h-7.195l-2.003-5.683h-10.057l-2.003 5.683h-6.868l10.629-28.249h6.868l10.629 28.249Zm-10.711-10.834-3.516-10.139-3.516 10.139h7.032ZM191.6 87.361h-16.353V59.153h6.582v22.73h9.771v5.478Zm19.868-22.934H200.43v6.909h10.384v5.274H200.43v10.752h-6.582V59.154h17.62v5.274ZM238 87.36h-7.195l-2.003-5.683h-10.057l-2.003 5.683h-6.868l10.629-28.249h6.868L238 87.36Zm-10.711-10.834-3.516-10.139-3.516 10.139h7.032Z"/><path fill="#41a7db" d="M72.366 41.397v3.872h-.006c-3.82 0-6.941 3.11-6.941 6.941s3.121 6.941 6.941 6.941h.005v3.873c-.826-.002-1.687-.134-3.18-.407l-1.829 3.164a14.367 14.367 0 0 1-4.251-2.454l1.829-3.164c-1.969-2.303-2.163-2.637-3.175-5.499H58.1a15.02 15.02 0 0 1 0-4.907h3.659c1.022-2.884 1.248-3.25 3.175-5.499l-1.829-3.164a14.367 14.367 0 0 1 4.251-2.454l1.829 3.164c1.482-.271 2.311-.411 3.181-.407ZM68.862 52.21a3.504 3.504 0 0 0 3.497 3.497h.005v-6.995h-.006a3.504 3.504 0 0 0-3.497 3.497Zm1.108 15.96a2.515 2.515 0 0 1-2.927 1.141 18.165 18.165 0 0 1-6.823-3.949 2.474 2.474 0 0 1-.473-3.088l1.022-1.776a13.869 13.869 0 0 1-1.377-2.389h-2.045a2.498 2.498 0 0 1-2.443-1.959 18.017 18.017 0 0 1 0-7.877 2.49 2.49 0 0 1 2.443-1.959h2.045c.377-.839.839-1.636 1.377-2.389l-1.022-1.776a2.477 2.477 0 0 1 .473-3.088 17.815 17.815 0 0 1 6.833-3.949 2.48 2.48 0 0 1 2.906 1.13l1.022 1.786c.46-.043.922-.065 1.384-.064v-5.182c-1.374-.011-2.751-.001-4.127-.005v-3.694h-2.586v-3.694h-1.907c-.004-2.462 0-4.925 0-7.388h-2.278v7.388c-.637-.002-1.274 0-1.911.005.002 1.229.004 2.459 0 3.688-.883.002-1.765 0-2.646.001v3.694h-4.063v54.586h19.52c-.002-3.28-.003-11.625-.003-20.904-.458 0-.916-.022-1.372-.064l-1.022 1.776Zm9.33-15.96c0-3.829-3.117-6.937-6.935-6.941v3.444c1.924.003 3.492 1.573 3.492 3.497s-1.568 3.494-3.492 3.497v3.444c3.818-.003 6.936-3.112 6.936-6.941Zm10.535-3.939a2.5 2.5 0 0 0-2.443-1.959h-2.045c-.379-.84-.84-1.64-1.377-2.389l1.022-1.776a2.506 2.506 0 0 0-.473-3.088 18.131 18.131 0 0 0-6.823-3.949 2.53 2.53 0 0 0-2.938 1.141l-1.022 1.776a14.574 14.574 0 0 0-1.37-.064v3.434c.823.003 1.683.135 3.168.407l1.829-3.164a14.244 14.244 0 0 1 4.251 2.454l-1.829 3.164c1.969 2.303 2.163 2.636 3.175 5.499h3.659c.28 1.625.28 3.293 0 4.907H82.96c-1.022 2.895-1.259 3.25-3.175 5.499l1.829 3.164a14.367 14.367 0 0 1-4.251 2.454l-1.829-3.164c-1.476.27-2.303.41-3.169.407v3.434c.462 0 .924-.021 1.383-.064l1.022 1.786c.581 1.001 1.819 1.485 2.916 1.13a17.815 17.815 0 0 0 6.833-3.949 2.5 2.5 0 0 0 .473-3.088l-1.022-1.776c.537-.749.999-1.549 1.377-2.389h2.045a2.488 2.488 0 0 0 2.443-1.959c.291-1.291.43-2.615.43-3.939s-.14-2.658-.43-3.939Z"/></svg>
