<svg xmlns="http://www.w3.org/2000/svg" x="0" y="0" version="1.1" viewBox="0 0 256 69.4"><style>.st1{fill:#41a7db}</style><path fill="#8394a0" d="M35.4 69.4V25.2c5.4 3.5 10.7 7.1 16 10.7v33.6h-16zm-17.4 0V55.7c.4-.4.9-.7 1.4-1 2.2-1.6 4.4-3.3 6.6-4.9 2.6 2 5.2 3.9 7.8 5.9l.1.1c.1.4.1.8 0 1.2v12.5H18z"/><path fill="#005191" d="M109.1 69.4h-7.2l-2-5.7h-10l-2 5.7H81l10.6-28.2h6.9l10.6 28.2zM98.4 58.5l-3.5-10.1-3.5 10.1h7zm28.8 10.9h-16.4V41.2h6.6v22.7h9.8v5.5zm19.8-23h-11v6.9h10.4v5.3H136v10.8h-6.6V41.2H147v5.2zm26.6 23h-7.2l-2-5.7h-10.1l-2 5.7h-6.9L156 41.2h6.9l10.7 28.2zm-10.7-10.9-3.5-10.1-3.5 10.1h7zm28.7 10.9h-16.4V41.2h6.6v22.7h9.8v5.5zm19.9-23h-11v6.9h10.4v5.3h-10.4v10.8h-6.6V41.2h17.6v5.2zm26.5 23h-7.2l-2-5.7h-10.1l-2 5.7h-6.9l10.6-28.2h6.9L238 69.4zm-10.7-10.9-3.5-10.1-3.5 10.1h7z"/><path d="m69.2 23.8-1.8-3.2c-1.5.6-3 1.4-4.3 2.5l1.8 3.2c-1.5 1.5-2.6 3.4-3.2 5.5H58c-.3 1.6-.3 3.3 0 4.9h3.7c.6 2.1 1.7 4 3.2 5.5l-1.8 3.2c1.3 1.1 2.7 1.9 4.3 2.5l1.8-3.2c1 .2 2.1.4 3.2.4v-3.9c-3.8 0-6.9-3.1-6.9-6.9 0-3.8 3.1-6.9 6.9-6.9v-3.9c-1.1-.1-2.2.1-3.2.3z" class="st1"/><path d="M68.9 34.2c0 1.9 1.6 3.5 3.5 3.5v-7c-2 0-3.5 1.6-3.5 3.5z" class="st1"/><path d="M70 50.2c-.6 1-1.8 1.5-2.9 1.1-2.5-.8-4.9-2.1-6.8-3.9-.9-.8-1.1-2.1-.5-3.1l1-1.8c-.5-.7-1-1.5-1.4-2.4h-2c-1.2 0-2.2-.8-2.4-2-.6-2.6-.6-5.3 0-7.9.3-1.1 1.3-2 2.4-2h2c.4-.8.8-1.6 1.4-2.4l-1-1.8c-.6-1-.4-2.3.5-3.1 2-1.8 4.3-3.2 6.8-4 1.1-.4 2.3.1 2.9 1.1l1 1.8c.5 0 .9-.1 1.4-.1v-5.2h-4.1v-3.7h-2.6V7.4h-1.9V0h-2.3v7.4h-1.9v3.7H57v3.7h-4.1v54.6h19.5V48.5c-.5 0-.9 0-1.4-.1l-1 1.8z" class="st1"/><path d="M79.3 34.2c0-3.8-3.1-6.9-6.9-6.9v3.4c1.9.1 3.4 1.7 3.4 3.6-.1 1.8-1.5 3.3-3.4 3.4v3.4c3.8 0 6.9-3.1 6.9-6.9z" class="st1"/><path d="M89.8 30.3c-.3-1.1-1.3-2-2.4-2h-2c-.4-.8-.8-1.6-1.4-2.4l1-1.8c.6-1 .4-2.3-.5-3.1-2-1.8-4.3-3.1-6.8-4-1.1-.4-2.3.1-2.9 1.1l-1 1.8c-.5 0-.9-.1-1.4-.1v3.4c1.1 0 2.1.2 3.2.4l1.8-3.2c1.5.6 3 1.4 4.3 2.5l-1.8 3.2c1.5 1.5 2.6 3.4 3.2 5.5h3.7c.3 1.6.3 3.3 0 4.9H83c-.6 2.1-1.7 4-3.2 5.5l1.8 3.2c-1.3 1.1-2.7 1.9-4.3 2.5l-1.8-3.2c-1 .2-2.1.4-3.2.4v3.4c.5 0 .9 0 1.4-.1l1 1.8c.6 1 1.8 1.5 2.9 1.1 2.5-.8 4.9-2.1 6.8-3.9.9-.8 1.1-2.1.5-3.1l-1-1.8c.5-.7 1-1.5 1.4-2.4h2c1.2 0 2.2-.8 2.4-2 .7-2.3.7-5 .1-7.6z" class="st1"/></svg>
